<svg width="32" height="32" viewBox="0 0 32 32" fill="none" xmlns="http://www.w3.org/2000/svg">
<path d="M13.332 6.99935V7.33268H18.6654V6.99935C18.6654 6.2921 18.3844 5.61383 17.8843 5.11373C17.3842 4.61363 16.7059 4.33268 15.9987 4.33268C15.2915 4.33268 14.6132 4.61363 14.1131 5.11373C13.613 5.61383 13.332 6.2921 13.332 6.99935ZM11.6654 7.33268V6.99935C11.6654 5.85008 12.1219 4.74788 12.9346 3.93522C13.7472 3.12256 14.8494 2.66602 15.9987 2.66602C17.148 2.66602 18.2502 3.12256 19.0628 3.93522C19.8755 4.74788 20.332 5.85008 20.332 6.99935V7.33268H27.832C28.053 7.33268 28.265 7.42048 28.4213 7.57676C28.5776 7.73304 28.6654 7.945 28.6654 8.16602C28.6654 8.38703 28.5776 8.59899 28.4213 8.75527C28.265 8.91155 28.053 8.99935 27.832 8.99935H25.8874L24.554 24.9033C24.4527 26.1111 23.9014 27.2367 23.0093 28.0571C22.1171 28.8775 20.9494 29.3327 19.7374 29.3327H12.26C11.0482 29.3326 9.88055 28.8772 8.98857 28.0569C8.09658 27.2365 7.54533 26.111 7.44403 24.9033L6.1107 8.99935H4.16536C3.94435 8.99935 3.73239 8.91155 3.57611 8.75527C3.41983 8.59899 3.33203 8.38703 3.33203 8.16602C3.33203 7.945 3.41983 7.73304 3.57611 7.57676C3.73239 7.42048 3.94435 7.33268 4.16536 7.33268H11.6654ZM14.332 13.4993C14.332 13.3899 14.3105 13.2816 14.2686 13.1804C14.2267 13.0793 14.1653 12.9875 14.088 12.9101C14.0106 12.8327 13.9187 12.7713 13.8176 12.7294C13.7165 12.6876 13.6081 12.666 13.4987 12.666C13.3893 12.666 13.2809 12.6876 13.1798 12.7294C13.0787 12.7713 12.9868 12.8327 12.9094 12.9101C12.8321 12.9875 12.7707 13.0793 12.7288 13.1804C12.6869 13.2816 12.6654 13.3899 12.6654 13.4993V23.166C12.6654 23.2754 12.6869 23.3838 12.7288 23.4849C12.7707 23.586 12.8321 23.6779 12.9094 23.7553C12.9868 23.8327 13.0787 23.894 13.1798 23.9359C13.2809 23.9778 13.3893 23.9993 13.4987 23.9993C13.6081 23.9993 13.7165 23.9778 13.8176 23.9359C13.9187 23.894 14.0106 23.8327 14.088 23.7553C14.1653 23.6779 14.2267 23.586 14.2686 23.4849C14.3105 23.3838 14.332 23.2754 14.332 23.166V13.4993ZM18.4987 12.666C18.0387 12.666 17.6654 13.0393 17.6654 13.4993V23.166C17.6654 23.387 17.7532 23.599 17.9094 23.7553C18.0657 23.9116 18.2777 23.9993 18.4987 23.9993C18.7197 23.9993 18.9317 23.9116 19.088 23.7553C19.2442 23.599 19.332 23.387 19.332 23.166V13.4993C19.332 13.0393 18.9587 12.666 18.4987 12.666Z" fill="#E3CAA5"/>
</svg>
