<svg width="113" height="113" viewBox="0 0 113 113" fill="none" xmlns="http://www.w3.org/2000/svg">
<path d="M40.3945 10.8899C40.3945 8.88501 42.0198 7.25977 44.0246 7.25977H80.3255L98.476 25.4102V76.2315C98.476 78.2364 96.8508 79.8615 94.8459 79.8615H44.0246C42.0198 79.8615 40.3945 78.2364 40.3945 76.2315V10.8899Z" fill="#E5CDA9" stroke="#AD8B73" stroke-width="3.45038" stroke-linejoin="round"/>
<path d="M54.918 36.3008H83.9587" stroke="white" stroke-width="3.45038" stroke-linecap="round" stroke-linejoin="round"/>
<path d="M54.3398 50.0312H83.3806" stroke="white" stroke-width="3.45038" stroke-linecap="round" stroke-linejoin="round"/>
<path d="M54.3398 43.1309H83.3806" stroke="white" stroke-width="3.45038" stroke-linecap="round" stroke-linejoin="round"/>
<path d="M14.5195 36.7688C14.5195 34.7639 16.1448 33.1387 18.1496 33.1387H54.4505L72.601 51.2891V102.11C72.601 104.115 70.9758 105.74 68.9709 105.74H18.1496C16.1448 105.74 14.5195 104.115 14.5195 102.11V36.7688Z" fill="#E5CDA9" stroke="#AD8B73" stroke-width="3.45038" stroke-linejoin="round"/>
<path d="M29.3281 62.9707H58.3688" stroke="white" stroke-width="3.45038" stroke-linecap="round" stroke-linejoin="round"/>
<path d="M29.3281 69.8711H58.3688" stroke="white" stroke-width="3.45038" stroke-linecap="round" stroke-linejoin="round"/>
<path d="M29.043 76.6992H58.0837" stroke="white" stroke-width="3.45038" stroke-linecap="round" stroke-linejoin="round"/>
</svg>
