<svg width="430" height="129" viewBox="0 0 430 129" fill="none" xmlns="http://www.w3.org/2000/svg">
<path fill-rule="evenodd" clip-rule="evenodd" d="M0 77.4L14.3333 68.8C28.6667 60.2 57.3333 43 86 43C114.667 43 143.333 60.2 172 64.5C200.667 68.8 229.333 60.2 258 58.05C286.667 55.9 315.333 60.2 344 51.6C372.667 43 401.333 21.5 415.667 10.75L430 0V129H415.667C401.333 129 372.667 129 344 129C315.333 129 286.667 129 258 129C229.333 129 200.667 129 172 129C143.333 129 114.667 129 86 129C57.3333 129 28.6667 129 14.3333 129H0V77.4Z" fill="#E3CAA5" fill-opacity="0.53"/>
</svg>
